<?xml version="1.0" encoding="UTF-8"?>
<svg id="Polygone" xmlns="http://www.w3.org/2000/svg" viewBox="0 0 3049.78 1131.64">
  <line x1="1682.16" y1="447.66" x2="1687.4" y2="462.46" style="fill: none; stroke: #ff8710; stroke-miterlimit: 10; stroke-width: 3px;"/>
  <line x1="1682.16" y1="447.66" x2="1667.19" y2="452.85" style="fill: none; stroke: #ff8710; stroke-miterlimit: 10; stroke-width: 3px;"/>
  <polyline points="1706.87 445.85 1682.16 447.66 1667.03 437.41" style="fill: none; stroke: #ff8710; stroke-miterlimit: 10; stroke-width: 3px;"/>
  <path d="M1707.04,462.26c-5.88-3.56-24.88-14.59-24.88-14.59l4.44-17.47" style="fill: none; stroke: #ff8710; stroke-miterlimit: 10; stroke-width: 3px;"/>
  <line x1="1707.04" y1="462.26" x2="1687.4" y2="462.46" style="fill: none; stroke: #ff8710; stroke-miterlimit: 10; stroke-width: 3px;"/>
  <line x1="1707.04" y1="462.26" x2="1716.1" y2="479" style="fill: none; stroke: #ff8710; stroke-miterlimit: 10; stroke-width: 3px;"/>
  <polyline points="1722.42 456.96 1707.04 462.26 1702.54 479.14" style="fill: none; stroke: #ff8710; stroke-miterlimit: 10; stroke-width: 3px;"/>
  <polyline points="1713.17 432.96 1706.87 445.85 1707.04 462.26 1724.37 464.42" style="fill: none; stroke: #ff8710; stroke-miterlimit: 10; stroke-width: 3px;"/>
  <line x1="1713.17" y1="432.96" x2="1697.24" y2="418.83" style="fill: none; stroke: #ff8710; stroke-miterlimit: 10; stroke-width: 3px;"/>
  <line x1="1717.2" y1="415.03" x2="1713.17" y2="432.96" style="fill: none; stroke: #ff8710; stroke-miterlimit: 10; stroke-width: 3px;"/>
  <path d="M1731.04,443.93c.13-.25-17.87-10.97-17.87-10.97" style="fill: none; stroke: #ff8710; stroke-miterlimit: 10; stroke-width: 3px;"/>
  <polyline points="1706.5 408.95 1713.17 432.96 1722.42 456.96" style="fill: none; stroke: #ff8710; stroke-miterlimit: 10; stroke-width: 3px;"/>
  <polyline points="1706.5 408.95 1717.2 415.03 1735.7 434.84 1686.6 430.2 1722.42 456.96" style="fill: none; stroke: #ff8710; stroke-miterlimit: 10; stroke-width: 3px;"/>
  <polyline points="1735.56 421.04 1737.33 405.36 1717.2 415.03 1735.56 421.04" style="fill: none; stroke: #ff8710; stroke-miterlimit: 10; stroke-width: 3px;"/>
  <polyline points="1542.79 635.59 1526.76 653.53 1542.87 653.37 1570.26 668.99 1564.95 653.14" style="fill: none; stroke: #ff8710; stroke-miterlimit: 10; stroke-width: 3px;"/>
  <polyline points="1526.88 674.46 1546.44 691.73 1562.6 723.07 1527.07 708.95" style="fill: none; stroke: #ff8710; stroke-miterlimit: 10; stroke-width: 3px;"/>
  <polyline points="1528.34 998.57 1558.84 1060.58 1668.4 1025.78" style="fill: none; stroke: #ff8710; stroke-miterlimit: 10; stroke-width: 3px;"/>
  <line x1="1653.35" y1="979.31" x2="1649.58" y2="958.66" style="fill: none; stroke: #ff8710; stroke-miterlimit: 10; stroke-width: 3px;"/>
  <line x1="1650.37" y1="864.13" x2="1643.02" y2="922.67" style="fill: none; stroke: #ff8710; stroke-miterlimit: 10; stroke-width: 3px;"/>
  <polyline points="1577.05 966.33 1649.58 958.66 1643.02 922.67 1625.15 868.31 1607.29 813.95 1547.85 866.47 1527.6 926.31" style="fill: none; stroke: #ff8710; stroke-miterlimit: 10; stroke-width: 3px;"/>
  <line x1="1527.6" y1="926.31" x2="1577.05" y2="966.33" style="fill: none; stroke: #ff8710; stroke-miterlimit: 10; stroke-width: 3px;"/>
  <polyline points="1528.34 998.57 1653.92 982.43 1653.35 979.31" style="fill: none; stroke: #ff8710; stroke-miterlimit: 10; stroke-width: 3px;"/>
  <path d="M1643.02,922.67l-114.68,75.89,140.06,27.21c-1.22-4.66-14.48-43.35-14.48-43.35" style="fill: none; stroke: #ff8710; stroke-miterlimit: 10; stroke-width: 3px;"/>
  <polyline points="1650.37 864.13 1625.15 868.31 1547.85 866.47 1643.02 922.67 1527.6 926.31" style="fill: none; stroke: #ff8710; stroke-miterlimit: 10; stroke-width: 3px;"/>
  <line x1="1607.29" y1="813.95" x2="1598.12" y2="753.22" style="fill: none; stroke: #ff8710; stroke-miterlimit: 10; stroke-width: 3px;"/>
  <polygon points="1650.37 864.13 1607.29 813.95 1639.22 825.9 1650.37 864.13" style="fill: none; stroke: #ff8710; stroke-miterlimit: 10; stroke-width: 3px;"/>
  <polyline points="1633.11 731.95 1607.29 813.95 1555.21 775.21 1547.85 866.47 1527.83 845.28 1555.21 775.21 1527.48 810.91" style="fill: none; stroke: #ff8710; stroke-miterlimit: 10; stroke-width: 3px;"/>
  <path d="M1526.88,674.46l15.99-21.09c.73-7.02-.09-17.77-.09-17.77" style="fill: none; stroke: #ff8710; stroke-miterlimit: 10; stroke-width: 3px;"/>
  <path d="M1555.21,775.21l-28.14-66.25s45.98-40.46,43.18-39.97-43.38,5.47-43.38,5.47" style="fill: none; stroke: #ff8710; stroke-miterlimit: 10; stroke-width: 3px;"/>
  <polyline points="1584.09 535.4 1551.71 548.04 1525.92 501.19 1581.58 500.61 1551.71 548.04" style="fill: none; stroke: #ff8710; stroke-miterlimit: 10; stroke-width: 3px;"/>
  <path d="M1599.9,458.68s-19.81,5.76-20.54,5.88-45.45-16.94-45.45-16.94" style="fill: none; stroke: #ff8710; stroke-miterlimit: 10; stroke-width: 3px;"/>
  <line x1="1577.14" y1="428.52" x2="1581.58" y2="500.61" style="fill: none; stroke: #ff8710; stroke-miterlimit: 10; stroke-width: 3px;"/>
  <line x1="1577.14" y1="428.52" x2="1533.91" y2="447.63" style="fill: none; stroke: #ff8710; stroke-miterlimit: 10; stroke-width: 3px;"/>
  <path d="M1533.91,447.63c-.73-1.94-8.9-35-8.9-35l42.23-37.79-42.07-8.86" style="fill: none; stroke: #ff8710; stroke-miterlimit: 10; stroke-width: 3px;"/>
  <line x1="1533.91" y1="447.63" x2="1525.92" y2="501.19" style="fill: none; stroke: #ff8710; stroke-miterlimit: 10; stroke-width: 3px;"/>
  <line x1="1581.58" y1="500.61" x2="1525.92" y2="501.19" style="fill: none; stroke: #ff8710; stroke-miterlimit: 10; stroke-width: 3px;"/>
  <line x1="1560.85" y1="288.37" x2="1576.25" y2="341.53" style="fill: none; stroke: #ff8710; stroke-miterlimit: 10; stroke-width: 3px;"/>
  <path d="M1576.25,341.53c-2.96-3.59-50.69-17.31-50.69-17.31" style="fill: none; stroke: #ff8710; stroke-miterlimit: 10; stroke-width: 3px;"/>
  <path d="M1564.48,242.97s-1.48,28.85-3.54,26.03-8.75-38.53-8.75-38.53" style="fill: none; stroke: #ff8710; stroke-miterlimit: 10; stroke-width: 3px;"/>
  <path d="M1593.28,315.16l-32.43-26.79s30.94,7.17,31.25,2.49-67.59-43.27-67.59-43.27" style="fill: none; stroke: #ff8710; stroke-miterlimit: 10; stroke-width: 3px;"/>
  <polyline points="1581.58 500.61 1533.91 447.63 1567.24 374.83 1525.56 324.22 1560.85 288.37 1524.51 247.58 1552.19 230.46" style="fill: none; stroke: #ff8710; stroke-miterlimit: 10; stroke-width: 3px;"/>
  <path d="M1600.16,484.4l-16.08,51s37.81,26.26,36.95,23.15" style="fill: none; stroke: #ff8710; stroke-miterlimit: 10; stroke-width: 3px;"/>
  <path d="M1616.55,577.43c-7.21-7.64-32.47-42.02-32.47-42.02l-2.51-34.79,18.59-16.21" style="fill: none; stroke: #ff8710; stroke-miterlimit: 10; stroke-width: 3px;"/>
  <path d="M1687.59,639.84c-.94-.69-70.99-58.25-70.99-58.25l65.88,73.39-40.45-4.85,27.42,22.87" style="fill: none; stroke: #ff8710; stroke-miterlimit: 10; stroke-width: 3px;"/>
  <line x1="1639.63" y1="573.58" x2="1621.04" y2="558.55" style="fill: none; stroke: #ff8710; stroke-miterlimit: 10; stroke-width: 3px;"/>
  <polyline points="1699.27 616.57 1616.6 581.58 1699.05 595.17" style="fill: none; stroke: #ff8710; stroke-miterlimit: 10; stroke-width: 3px;"/>
  <polyline points="1651.23 549.71 1639.63 573.58 1702.69 573.38" style="fill: none; stroke: #ff8710; stroke-miterlimit: 10; stroke-width: 3px;"/>
  <line x1="1671.44" y1="501.8" x2="1701.12" y2="523.59" style="fill: none; stroke: #ff8710; stroke-miterlimit: 10; stroke-width: 3px;"/>
  <line x1="1671.44" y1="501.8" x2="1651.23" y2="549.71" style="fill: none; stroke: #ff8710; stroke-miterlimit: 10; stroke-width: 3px;"/>
  <line x1="1646.46" y1="483.99" x2="1651.23" y2="549.71" style="fill: none; stroke: #ff8710; stroke-miterlimit: 10; stroke-width: 3px;"/>
  <path d="M1621.04,558.55c5.73.17,30.19-8.85,30.19-8.85l47.39,3.37-82.02,28.5" style="fill: none; stroke: #ff8710; stroke-miterlimit: 10; stroke-width: 3px;"/>
  <path d="M1600.16,484.4l51.07,65.31c-2.78,2.48,49.89-26.12,49.89-26.12l-17.34-48.86-12.35,27.06-24.97-17.81" style="fill: none; stroke: #ff8710; stroke-miterlimit: 10; stroke-width: 3px;"/>
  <polyline points="1702.54 479.14 1683.79 474.73 1687.4 462.46" style="fill: none; stroke: #ff8710; stroke-miterlimit: 10; stroke-width: 3px;"/>
  <path d="M1599.9,458.68c15.01-18.16,46.85-39.91,46.85-39.91,0,0-48.66,67.99-46.58,65.63s46.3-.42,46.3-.42l20.73-31.14,36.86,48.61-1.52-22.32" style="fill: none; stroke: #ff8710; stroke-miterlimit: 10; stroke-width: 3px;"/>
  <polyline points="1616.83 342.4 1567.24 374.83 1623.16 400.92 1577.14 428.52 1646.75 418.77 1667.19 452.85" style="fill: none; stroke: #ff8710; stroke-miterlimit: 10; stroke-width: 3px;"/>
  <polyline points="1638.07 303.95 1616.83 342.4 1689.53 317.1" style="fill: none; stroke: #ff8710; stroke-miterlimit: 10; stroke-width: 3px;"/>
  <path d="M1623.16,400.92c-3.97.74-3.84-55.38-6.33-58.52s-24.73-51.54-24.73-51.54" style="fill: none; stroke: #ff8710; stroke-miterlimit: 10; stroke-width: 3px;"/>
  <polyline points="1792.83 207.88 1834.26 234.47 1835.23 192.48" style="fill: none; stroke: #ff8710; stroke-miterlimit: 10; stroke-width: 3px;"/>
  <line x1="1701.81" y1="362.92" x2="1722.19" y2="388.67" style="fill: none; stroke: #ff8710; stroke-miterlimit: 10; stroke-width: 3px;"/>
  <polyline points="1748.33 371.92 1722.19 388.67 1737.33 405.36" style="fill: none; stroke: #ff8710; stroke-miterlimit: 10; stroke-width: 3px;"/>
  <line x1="1666.42" y1="377.38" x2="1681.73" y2="405.93" style="fill: none; stroke: #ff8710; stroke-miterlimit: 10; stroke-width: 3px;"/>
  <line x1="1686.6" y1="430.2" x2="1681.73" y2="405.93" style="fill: none; stroke: #ff8710; stroke-miterlimit: 10; stroke-width: 3px;"/>
  <polyline points="1701.81 362.92 1706.5 408.95 1681.73 405.93" style="fill: none; stroke: #ff8710; stroke-miterlimit: 10; stroke-width: 3px;"/>
  <polyline points="1689.53 317.1 1666.42 377.38 1623.16 400.92" style="fill: none; stroke: #ff8710; stroke-miterlimit: 10; stroke-width: 3px;"/>
  <path d="M1741.77,348.13l-39.95,14.79-34.78,74.49-.62-60.04,35.4-14.45-12.28-45.83s-65.9,83.81-66.37,83.82,42.88,30.9,43.87,36.5" style="fill: none; stroke: #ff8710; stroke-miterlimit: 10; stroke-width: 3px;"/>
  <polyline points="1748.33 371.92 1701.81 362.92 1716.27 324.19" style="fill: none; stroke: #ff8710; stroke-miterlimit: 10; stroke-width: 3px;"/>
  <line x1="1741.77" y1="348.13" x2="1755.17" y2="326.95" style="fill: none; stroke: #ff8710; stroke-miterlimit: 10; stroke-width: 3px;"/>
  <line x1="1762.9" y1="299.16" x2="1755.17" y2="326.95" style="fill: none; stroke: #ff8710; stroke-miterlimit: 10; stroke-width: 3px;"/>
  <path d="M1804.46,270.86c-3.03,1.01-16.9,23.23-16.9,23.23l6.52,35.61" style="fill: none; stroke: #ff8710; stroke-miterlimit: 10; stroke-width: 3px;"/>
  <line x1="1814.47" y1="288.57" x2="1762.9" y2="299.16" style="fill: none; stroke: #ff8710; stroke-miterlimit: 10; stroke-width: 3px;"/>
  <line x1="1888.62" y1="220.4" x2="1877.94" y2="187.35" style="fill: none; stroke: #ff8710; stroke-miterlimit: 10; stroke-width: 3px;"/>
  <path d="M1835.23,192.48l53.39,27.92-54.36,14.06s-28.18,40.08-29.79,36.39-11.64-62.98-11.64-62.98" style="fill: none; stroke: #ff8710; stroke-miterlimit: 10; stroke-width: 3px;"/>
  <line x1="1832.58" y1="378.42" x2="1812.94" y2="344.95" style="fill: none; stroke: #ff8710; stroke-miterlimit: 10; stroke-width: 3px;"/>
  <path d="M1748.33,371.92c5.94-2.52,28.66-9.77,28.66-9.77" style="fill: none; stroke: #ff8710; stroke-miterlimit: 10; stroke-width: 3px;"/>
  <polyline points="1794.08 329.71 1776.99 362.15 1743 399.68 1737.33 405.36" style="fill: none; stroke: #ff8710; stroke-miterlimit: 10; stroke-width: 3px;"/>
  <path d="M1777.02,399.34c6.94-7.79,35.92-54.39,35.92-54.39l-35.95,17.21-35.22-14.02,52.31-18.43" style="fill: none; stroke: #ff8710; stroke-miterlimit: 10; stroke-width: 3px;"/>
  <g>
    <polyline points="1839.32 316.61 1794.08 329.71 1716.27 324.19" style="fill: none; stroke: #ff8710; stroke-miterlimit: 10; stroke-width: 3px;"/>
    <polygon points="1839.32 316.61 1871.55 347.5 1812.94 344.94 1839.32 316.61" style="fill: none; stroke: #ff8710; stroke-miterlimit: 10; stroke-width: 3px;"/>
    <polyline points="1942.25 195.59 1870.13 244.04 1933.17 233.56 1849.63 296.16 1907.46 292.06 1839.32 316.61" style="fill: none; stroke: #ff8710; stroke-miterlimit: 10; stroke-width: 3px;"/>
  </g>
  <path d="M1762.9,299.16l31.18,30.55,20.39-41.13,24.84,28.04,10.31-20.45c2.08-2.83,20.51-52.13,20.51-52.13l-55.67,44.54-10-17.71-41.57,28.3-38.01-12.47-8.62,37.51-29.76-26.44-4.43,10.65" style="fill: none; stroke: #ff8710; stroke-miterlimit: 10; stroke-width: 3px;"/>
  <polyline points="1918.26 182.51 1870.14 244.04 1804.46 270.86 1766.46 259.13 1724.88 286.69" style="fill: none; stroke: #ff8710; stroke-miterlimit: 10; stroke-width: 3px;"/>
  <polyline points="1792.83 207.88 1766.46 259.13 1762.9 299.16 1716.27 324.19" style="fill: none; stroke: #ff8710; stroke-miterlimit: 10; stroke-width: 3px;"/>
  <path d="M1524.39,227.24l1.07.22,26.72,3,12.29,12.5s23.81,41.38,27.62,47.89,45.97,13.09,45.97,13.09l44.01,4.46,7.46,8.69,26.73,7.09,25.5,23.94s5.85,22.74,6.56,23.79-5.33,27.77-5.33,27.77l34.02-.35,55.56-20.92,38.97-30.92,17.95-28.25,17.96-27.19,25.71-58.49,9.08-37.98-23.99-13.08-83.03,9.97-42.4,15.4-24.04,27.37s-36.96,44.34-43.9,51.43-38.37,11.07-38.37,11.07l-8.56-15.62-4.75-18.19,4.44-9.6-4.81-12.81-4.53-30.82,2.81-13.22-.46-45,17.54-45.18-9.28-26.91-18.18-17.81-27,.28-26.81,18.28.28,27,.28,27-8.54,45.09-35.81,18.37-18,.18-20.94-8.2,4.15,807.98" style="fill: none; stroke: #ff8710; stroke-miterlimit: 10; stroke-width: 3px;"/>
  <path d="M1667.03,437.41c3.72-1.91,19.57-7.22,19.57-7.22l19.89-21.25,30.83-3.59,6.6,5.54,20.37,25.51-20.21-10.08-8.53-5.29.14,13.8-8.2,15.99-5.08,6.13,1.95,7.46-8.27,14.58s-12.14,2-13.56.14-13.73-16.23-15.14-16.68-20.21-9.61-20.21-9.61l-.16-15.43Z" style="fill: none; stroke: #ff8710; stroke-miterlimit: 10; stroke-width: 3px;"/>
  <line x1="1633.11" y1="731.95" x2="1562.6" y2="723.07" style="fill: none; stroke: #ff8710; stroke-miterlimit: 10; stroke-width: 3px;"/>
  <polyline points="1570.26 668.99 1555.21 775.21 1570.26 668.99" style="fill: none; stroke: #ff8710; stroke-miterlimit: 10; stroke-width: 3px;"/>
  <polyline points="1570.26 668.99 1594.48 727.54 1555.21 775.21" style="fill: none; stroke: #ff8710; stroke-miterlimit: 10; stroke-width: 3px;"/>
  <path d="M1645.99,710.77l-75.73-41.78,63.29,59.8.77.61" style="fill: none; stroke: #ff8710; stroke-miterlimit: 10; stroke-width: 3px;"/>
  <polyline points="1590.96 636.04 1568.54 638.8 1561.96 635.4" style="fill: none; stroke: #ff8710; stroke-miterlimit: 10; stroke-width: 3px;"/>
  <line x1="1592.97" y1="603.74" x2="1602.46" y2="616.74" style="fill: none; stroke: #ff8710; stroke-miterlimit: 10; stroke-width: 3px;"/>
  <polyline points="1602.46 616.74 1582.76 615.54 1590.96 636.04 1572.59 622.66 1564.95 653.14" style="fill: none; stroke: #ff8710; stroke-miterlimit: 10; stroke-width: 3px;"/>
  <polyline points="1617.24 643.72 1590.96 636.04 1570.26 668.99" style="fill: none; stroke: #ff8710; stroke-miterlimit: 10; stroke-width: 3px;"/>
  <line x1="1617.24" y1="643.72" x2="1602.46" y2="616.74" style="fill: none; stroke: #ff8710; stroke-miterlimit: 10; stroke-width: 3px;"/>
  <polyline points="1570.26 668.99 1652.47 681.94 1617.24 643.72 1642.03 650.13" style="fill: none; stroke: #ff8710; stroke-miterlimit: 10; stroke-width: 3px;"/>
  <polyline points="1616.6 581.58 1623.01 613.72 1642.03 650.13" style="fill: none; stroke: #ff8710; stroke-miterlimit: 10; stroke-width: 3px;"/>
  <path d="M1613.52,596.75c-.21,0-11.24,2.22-11.24,2.22l5.48-12.52" style="fill: none; stroke: #ff8710; stroke-miterlimit: 10; stroke-width: 3px;"/>
  <path d="M1602.28,598.97s21.62,16.34,20.73,14.75" style="fill: none; stroke: #ff8710; stroke-miterlimit: 10; stroke-width: 3px;"/>
  <line x1="1564.95" y1="653.14" x2="1542.79" y2="635.59" style="fill: none; stroke: #ff8710; stroke-miterlimit: 10; stroke-width: 3px;"/>
  <path d="M1560.53,586.94l22.23,28.6-33.74-11.35s26.26,18.5,23.58,18.47-29.8,12.93-29.8,12.93l19.17-.2" style="fill: none; stroke: #ff8710; stroke-miterlimit: 10; stroke-width: 3px;"/>
  <line x1="1589.47" y1="581.86" x2="1592.97" y2="603.74" style="fill: none; stroke: #ff8710; stroke-miterlimit: 10; stroke-width: 3px;"/>
  <polyline points="1560.53 586.94 1592.97 603.74 1607.76 586.45" style="fill: none; stroke: #ff8710; stroke-miterlimit: 10; stroke-width: 3px;"/>
  <polyline points="1551.71 548.04 1560.53 586.94 1526.08 548.3 1549.01 604.19 1526.8 619.21 1542.79 635.59" style="fill: none; stroke: #ff8710; stroke-miterlimit: 10; stroke-width: 3px;"/>
  <polyline points="1616.6 581.58 1607.76 586.45 1586.56 571.54 1589.47 581.86" style="fill: none; stroke: #ff8710; stroke-miterlimit: 10; stroke-width: 3px;"/>
  <polyline points="1616.6 581.58 1586.56 571.54 1551.71 548.04 1527.86 548.29 1526.08 548.3" style="fill: none; stroke: #ff8710; stroke-miterlimit: 10; stroke-width: 3px;"/>
  <path d="M1650.84,681.96l-4.85,28.81-12.88,21.18-44.62,27.12s-33.03,17.18-36.77,17.22l-24.27.25" style="fill: none; stroke: #ff8710; stroke-miterlimit: 10; stroke-width: 3px;"/>
  <path d="M1549.01,604.19c1.37-3.29,11.52-17.26,11.52-17.26l28.95-5.08,18.29,4.59,15.25,27.27-5.77,29.99-20,10.49-26.98,14.78-14.17-13.42s-14.68-17.62-13.3-19.97,6.23-31.4,6.23-31.4Z" style="fill: none; stroke: #ff8710; stroke-miterlimit: 10; stroke-width: 3px;"/>
  <polygon points="1602.28 598.97 1602.46 616.74 1590.96 636.04 1572.85 648.38 1564.95 653.14 1561.96 635.4 1572.59 622.66 1582.76 615.54 1592.97 603.74 1602.28 598.97" style="fill: none; stroke: #ff8710; stroke-miterlimit: 10; stroke-width: 3px;"/>
  <polyline points="1633.74 62.87 1688.19 107.31 1607.48 135.14 1670.66 152.49 1598.94 180.23 1671.12 197.49" style="fill: none; stroke: #ff8710; stroke-miterlimit: 10; stroke-width: 3px;"/>
  <line x1="1688.19" y1="107.31" x2="1606.92" y2="81.14" style="fill: none; stroke: #ff8710; stroke-miterlimit: 10; stroke-width: 3px;"/>
  <line x1="1677.95" y1="282.14" x2="1592.1" y2="290.86" style="fill: none; stroke: #ff8710; stroke-miterlimit: 10; stroke-width: 3px;"/>
  <path d="M1677.64,254.35c-3.14-.24-85.55,36.51-85.55,36.51l81.1-26.91" style="fill: none; stroke: #ff8710; stroke-miterlimit: 10; stroke-width: 3px;"/>
  <path d="M1668.31,210.71l-103.83,32.25,108.36-1.43-80.74,49.32,1.19,24.31-17.03,26.37-9.01,33.3,9.91,53.68,22.76,30.17.26,25.72,16.01,56.43,4.86,17.72-4.44,23.03,15.83,38.12s13.51,40.08,14.95,43.81c1.44,3.73,3.46,18.44,3.46,18.44l18.62-8.96,13.03-18.02,5.11-15.14,11.69-23.27-.22-21.4s4.33-22.85,3.63-21.79-4.07-20.3-4.07-20.3l2.66-14.41-.15-15.08,2.93-22.13,9.75-7.12-1.9-14.47" style="fill: none; stroke: #ff8710; stroke-miterlimit: 10; stroke-width: 3px;"/>
  <path d="M1524.39,227.24s19.31-28.52,20.73-28.45l7.06,31.68,10.94-31.86,1.35,44.36,34.46-62.73" style="fill: none; stroke: #ff8710; stroke-miterlimit: 10; stroke-width: 3px;"/>
  <line x1="1368.86" y1="449.27" x2="1363.78" y2="464.12" style="fill: none; stroke: #ff8710; stroke-miterlimit: 10; stroke-width: 3px;"/>
  <line x1="1368.86" y1="449.27" x2="1383.89" y2="454.3" style="fill: none; stroke: #ff8710; stroke-miterlimit: 10; stroke-width: 3px;"/>
  <polyline points="1344.14 447.71 1368.86 449.27 1383.89 438.87" style="fill: none; stroke: #ff8710; stroke-miterlimit: 10; stroke-width: 3px;"/>
  <path d="M1344.14,464.12c5.85-3.62,24.73-14.85,24.73-14.85l-4.62-17.42" style="fill: none; stroke: #ff8710; stroke-miterlimit: 10; stroke-width: 3px;"/>
  <line x1="1344.14" y1="464.12" x2="1363.78" y2="464.12" style="fill: none; stroke: #ff8710; stroke-miterlimit: 10; stroke-width: 3px;"/>
  <line x1="1344.14" y1="464.12" x2="1335.25" y2="480.96" style="fill: none; stroke: #ff8710; stroke-miterlimit: 10; stroke-width: 3px;"/>
  <polyline points="1328.7 458.98 1344.14 464.12 1348.81 480.96" style="fill: none; stroke: #ff8710; stroke-miterlimit: 10; stroke-width: 3px;"/>
  <polyline points="1337.71 434.89 1344.14 447.71 1344.14 464.12 1326.83 466.46" style="fill: none; stroke: #ff8710; stroke-miterlimit: 10; stroke-width: 3px;"/>
  <line x1="1337.71" y1="434.89" x2="1353.49" y2="420.6" style="fill: none; stroke: #ff8710; stroke-miterlimit: 10; stroke-width: 3px;"/>
  <line x1="1333.5" y1="417" x2="1337.71" y2="434.89" style="fill: none; stroke: #ff8710; stroke-miterlimit: 10; stroke-width: 3px;"/>
  <path d="M1319.95,446.04c-.13-.25,17.75-11.15,17.75-11.15" style="fill: none; stroke: #ff8710; stroke-miterlimit: 10; stroke-width: 3px;"/>
  <polyline points="1344.14 410.81 1337.71 434.89 1328.7 458.98" style="fill: none; stroke: #ff8710; stroke-miterlimit: 10; stroke-width: 3px;"/>
  <polyline points="1344.14 410.81 1333.5 417 1315.2 437 1364.25 431.85 1328.7 458.98" style="fill: none; stroke: #ff8710; stroke-miterlimit: 10; stroke-width: 3px;"/>
  <polyline points="1315.2 423.2 1313.27 407.53 1333.5 417 1315.2 423.2" style="fill: none; stroke: #ff8710; stroke-miterlimit: 10; stroke-width: 3px;"/>
  <polyline points="1510.16 635.76 1526.37 653.53 1510.26 653.53 1483.04 669.44 1488.18 653.53" style="fill: none; stroke: #ff8710; stroke-miterlimit: 10; stroke-width: 3px;"/>
  <polyline points="1526.47 674.46 1507.08 691.93 1491.25 723.43 1526.63 708.96" style="fill: none; stroke: #ff8710; stroke-miterlimit: 10; stroke-width: 3px;"/>
  <polyline points="1528.34 998.57 1498.47 1060.89 1388.57 1027.21" style="fill: none; stroke: #ff8710; stroke-miterlimit: 10; stroke-width: 3px;"/>
  <line x1="1403.13" y1="980.59" x2="1406.69" y2="959.9" style="fill: none; stroke: #ff8710; stroke-miterlimit: 10; stroke-width: 3px;"/>
  <line x1="1404.94" y1="865.39" x2="1412.89" y2="923.85" style="fill: none; stroke: #ff8710; stroke-miterlimit: 10; stroke-width: 3px;"/>
  <polyline points="1479.3 966.83 1406.69 959.9 1412.89 923.85 1430.19 869.31 1447.49 814.77 1507.47 866.68 1528.34 926.31" style="fill: none; stroke: #ff8710; stroke-miterlimit: 10; stroke-width: 3px;"/>
  <line x1="1528.34" y1="926.31" x2="1479.3" y2="966.83" style="fill: none; stroke: #ff8710; stroke-miterlimit: 10; stroke-width: 3px;"/>
  <polyline points="1528.34 998.57 1402.6 983.72 1403.13 980.59" style="fill: none; stroke: #ff8710; stroke-miterlimit: 10; stroke-width: 3px;"/>
  <path d="M1412.89,923.85l115.45,74.71-139.77,28.65c1.17-4.68,14.03-43.49,14.03-43.49" style="fill: none; stroke: #ff8710; stroke-miterlimit: 10; stroke-width: 3px;"/>
  <polyline points="1404.94 865.39 1430.19 869.31 1507.47 866.68 1412.89 923.85 1528.34 926.31" style="fill: none; stroke: #ff8710; stroke-miterlimit: 10; stroke-width: 3px;"/>
  <line x1="1447.49" y1="814.77" x2="1456.05" y2="753.95" style="fill: none; stroke: #ff8710; stroke-miterlimit: 10; stroke-width: 3px;"/>
  <polygon points="1404.94 865.39 1447.49 814.77 1415.69 827.04 1404.94 865.39" style="fill: none; stroke: #ff8710; stroke-miterlimit: 10; stroke-width: 3px;"/>
  <polyline points="1420.84 733.04 1447.49 814.77 1499.17 775.49 1507.47 866.68 1527.27 845.29 1499.17 775.49 1527.27 810.91" style="fill: none; stroke: #ff8710; stroke-miterlimit: 10; stroke-width: 3px;"/>
  <path d="M1526.47,674.46l-16.21-20.93c-.8-7.02-.1-17.77-.1-17.77" style="fill: none; stroke: #ff8710; stroke-miterlimit: 10; stroke-width: 3px;"/>
  <path d="M1499.17,775.49l27.46-66.54s-46.4-39.99-43.59-39.52,43.43,5.03,43.43,5.03" style="fill: none; stroke: #ff8710; stroke-miterlimit: 10; stroke-width: 3px;"/>
  <polyline points="1467.84 536 1500.34 548.31 1525.65 501.19 1469.99 501.19 1500.34 548.31" style="fill: none; stroke: #ff8710; stroke-miterlimit: 10; stroke-width: 3px;"/>
  <path d="M1451.24,459.45s19.87,5.55,20.6,5.67,45.28-17.4,45.28-17.4" style="fill: none; stroke: #ff8710; stroke-miterlimit: 10; stroke-width: 3px;"/>
  <line x1="1473.68" y1="429.05" x2="1469.99" y2="501.19" style="fill: none; stroke: #ff8710; stroke-miterlimit: 10; stroke-width: 3px;"/>
  <line x1="1473.68" y1="429.05" x2="1517.11" y2="447.71" style="fill: none; stroke: #ff8710; stroke-miterlimit: 10; stroke-width: 3px;"/>
  <path d="M1517.11,447.71c.71-1.95,8.54-35.09,8.54-35.09l-42.61-37.36,41.98-9.3" style="fill: none; stroke: #ff8710; stroke-miterlimit: 10; stroke-width: 3px;"/>
  <line x1="1517.11" y1="447.71" x2="1525.65" y2="501.19" style="fill: none; stroke: #ff8710; stroke-miterlimit: 10; stroke-width: 3px;"/>
  <line x1="1469.99" y1="501.19" x2="1525.65" y2="501.19" style="fill: none; stroke: #ff8710; stroke-miterlimit: 10; stroke-width: 3px;"/>
  <line x1="1488.53" y1="288.74" x2="1473.68" y2="342.06" style="fill: none; stroke: #ff8710; stroke-miterlimit: 10; stroke-width: 3px;"/>
  <path d="M1473.68,342.06c2.92-3.62,50.51-17.83,50.51-17.83" style="fill: none; stroke: #ff8710; stroke-miterlimit: 10; stroke-width: 3px;"/>
  <path d="M1484.44,243.38s1.77,28.83,3.81,25.99,8.35-38.62,8.35-38.62" style="fill: none; stroke: #ff8710; stroke-miterlimit: 10; stroke-width: 3px;"/>
  <path d="M1456.38,315.87l32.15-27.13s-30.87,7.48-31.22,2.81,67.14-43.96,67.14-43.96" style="fill: none; stroke: #ff8710; stroke-miterlimit: 10; stroke-width: 3px;"/>
  <polyline points="1469.99 501.19 1517.11 447.71 1483.04 375.26 1524.19 324.23 1488.53 288.74 1524.46 247.59 1496.6 230.75" style="fill: none; stroke: #ff8710; stroke-miterlimit: 10; stroke-width: 3px;"/>
  <path d="M1451.24,485.17l16.6,50.83s-37.53,26.65-36.71,23.53" style="fill: none; stroke: #ff8710; stroke-miterlimit: 10; stroke-width: 3px;"/>
  <path d="M1435.8,578.35c7.13-7.72,32.04-42.35,32.04-42.35l2.15-34.81-18.76-16.02" style="fill: none; stroke: #ff8710; stroke-miterlimit: 10; stroke-width: 3px;"/>
  <path d="M1365.42,641.49c.94-.7,70.39-58.98,70.39-58.98l-65.12,74.06,40.4-5.26-27.18,23.15" style="fill: none; stroke: #ff8710; stroke-miterlimit: 10; stroke-width: 3px;"/>
  <line x1="1412.69" y1="574.74" x2="1431.13" y2="559.53" style="fill: none; stroke: #ff8710; stroke-miterlimit: 10; stroke-width: 3px;"/>
  <polyline points="1353.49 618.34 1435.8 582.51 1353.49 596.94" style="fill: none; stroke: #ff8710; stroke-miterlimit: 10; stroke-width: 3px;"/>
  <polyline points="1400.84 550.99 1412.69 574.74 1349.63 575.2" style="fill: none; stroke: #ff8710; stroke-miterlimit: 10; stroke-width: 3px;"/>
  <line x1="1380.15" y1="503.29" x2="1350.68" y2="525.39" style="fill: none; stroke: #ff8710; stroke-miterlimit: 10; stroke-width: 3px;"/>
  <line x1="1380.15" y1="503.29" x2="1400.84" y2="550.99" style="fill: none; stroke: #ff8710; stroke-miterlimit: 10; stroke-width: 3px;"/>
  <line x1="1404.94" y1="485.23" x2="1400.84" y2="550.99" style="fill: none; stroke: #ff8710; stroke-miterlimit: 10; stroke-width: 3px;"/>
  <path d="M1431.13,559.53c-5.73.23-30.28-8.54-30.28-8.54l-47.35,3.86,82.31,27.66" style="fill: none; stroke: #ff8710; stroke-miterlimit: 10; stroke-width: 3px;"/>
  <path d="M1451.24,485.17l-50.39,65.83c2.81,2.46-50.16-25.61-50.16-25.61l16.84-49.03,12.63,26.94,24.79-18.06" style="fill: none; stroke: #ff8710; stroke-miterlimit: 10; stroke-width: 3px;"/>
  <polyline points="1348.81 480.96 1367.52 476.35 1363.78 464.12" style="fill: none; stroke: #ff8710; stroke-miterlimit: 10; stroke-width: 3px;"/>
  <path d="M1451.24,459.45c-15.2-18.01-47.25-39.43-47.25-39.43,0,0,49.36,67.49,47.25,65.15s-46.3.06-46.3.06l-21.05-30.93-36.36,48.99,1.29-22.33" style="fill: none; stroke: #ff8710; stroke-miterlimit: 10; stroke-width: 3px;"/>
  <polyline points="1433.11 343.34 1483.04 375.26 1427.38 401.92 1473.68 429.05 1403.98 420.02 1383.89 454.3" style="fill: none; stroke: #ff8710; stroke-miterlimit: 10; stroke-width: 3px;"/>
  <polyline points="1411.48 305.11 1433.11 343.34 1360.15 318.79" style="fill: none; stroke: #ff8710; stroke-miterlimit: 10; stroke-width: 3px;"/>
  <path d="M1427.38,401.92c3.98.7,3.27-55.42,5.73-58.58s24.2-51.8,24.2-51.8" style="fill: none; stroke: #ff8710; stroke-miterlimit: 10; stroke-width: 3px;"/>
  <polyline points="1255.74 210.64 1214.59 237.65 1213.19 195.67" style="fill: none; stroke: #ff8710; stroke-miterlimit: 10; stroke-width: 3px;"/>
  <line x1="1348.35" y1="364.74" x2="1328.24" y2="390.7" style="fill: none; stroke: #ff8710; stroke-miterlimit: 10; stroke-width: 3px;"/>
  <polyline points="1301.93 374.21 1328.24 390.7 1313.27 407.53" style="fill: none; stroke: #ff8710; stroke-miterlimit: 10; stroke-width: 3px;"/>
  <line x1="1383.89" y1="378.83" x2="1368.86" y2="407.53" style="fill: none; stroke: #ff8710; stroke-miterlimit: 10; stroke-width: 3px;"/>
  <line x1="1364.25" y1="431.85" x2="1368.86" y2="407.53" style="fill: none; stroke: #ff8710; stroke-miterlimit: 10; stroke-width: 3px;"/>
  <polyline points="1348.35 364.74 1344.14 410.81 1368.86 407.53" style="fill: none; stroke: #ff8710; stroke-miterlimit: 10; stroke-width: 3px;"/>
  <polyline points="1360.15 318.79 1383.89 378.83 1427.38 401.92" style="fill: none; stroke: #ff8710; stroke-miterlimit: 10; stroke-width: 3px;"/>
  <path d="M1308.24,350.36l40.1,14.38,35.54,74.13v-60.04l-35.54-14.09,11.81-45.95s66.76,83.13,67.23,83.13-42.56,31.33-43.49,36.95" style="fill: none; stroke: #ff8710; stroke-miterlimit: 10; stroke-width: 3px;"/>
  <polyline points="1301.93 374.21 1348.35 364.74 1333.5 326.16" style="fill: none; stroke: #ff8710; stroke-miterlimit: 10; stroke-width: 3px;"/>
  <line x1="1308.24" y1="350.36" x2="1294.62" y2="329.31" style="fill: none; stroke: #ff8710; stroke-miterlimit: 10; stroke-width: 3px;"/>
  <line x1="1286.61" y1="301.6" x2="1294.62" y2="329.31" style="fill: none; stroke: #ff8710; stroke-miterlimit: 10; stroke-width: 3px;"/>
  <path d="M1244.75,273.73c3.04.98,17.14,23.06,17.14,23.06l-6.15,35.68" style="fill: none; stroke: #ff8710; stroke-miterlimit: 10; stroke-width: 3px;"/>
  <line x1="1234.93" y1="291.55" x2="1286.61" y2="301.6" style="fill: none; stroke: #ff8710; stroke-miterlimit: 10; stroke-width: 3px;"/>
  <line x1="1160.08" y1="224.14" x2="1170.43" y2="190.98" style="fill: none; stroke: #ff8710; stroke-miterlimit: 10; stroke-width: 3px;"/>
  <path d="M1213.19,195.67l-53.1,28.47,54.5,13.5s28.59,39.79,30.17,36.09,10.99-63.1,10.99-63.1" style="fill: none; stroke: #ff8710; stroke-miterlimit: 10; stroke-width: 3px;"/>
  <line x1="1217.75" y1="381.58" x2="1237.04" y2="347.9" style="fill: none; stroke: #ff8710; stroke-miterlimit: 10; stroke-width: 3px;"/>
  <path d="M1301.93,374.21c-5.96-2.46-28.76-9.47-28.76-9.47" style="fill: none; stroke: #ff8710; stroke-miterlimit: 10; stroke-width: 3px;"/>
  <polyline points="1255.74 332.47 1273.17 364.74 1307.54 401.92 1313.27 407.53" style="fill: none; stroke: #ff8710; stroke-miterlimit: 10; stroke-width: 3px;"/>
  <path d="M1273.52,401.92c-7.02-7.72-36.48-54.02-36.48-54.02l36.13,16.84,35.08-14.38-52.5-17.89" style="fill: none; stroke: #ff8710; stroke-miterlimit: 10; stroke-width: 3px;"/>
  <g>
    <polyline points="1210.38 319.84 1255.75 332.47 1333.5 326.16" style="fill: none; stroke: #ff8710; stroke-miterlimit: 10; stroke-width: 3px;"/>
    <polygon points="1210.38 319.84 1178.46 351.06 1237.04 347.9 1210.38 319.84" style="fill: none; stroke: #ff8710; stroke-miterlimit: 10; stroke-width: 3px;"/>
    <polyline points="1106.2 199.88 1178.81 247.59 1115.67 237.76 1199.86 299.5 1141.98 295.99 1210.38 319.84" style="fill: none; stroke: #ff8710; stroke-miterlimit: 10; stroke-width: 3px;"/>
  </g>
  <path d="M1286.61,301.6l-30.87,30.87-20.81-40.92-24.55,28.29-10.52-20.34c-2.1-2.81-21.05-51.91-21.05-51.91l56.12,43.96,9.82-17.81,41.86,27.87,37.88-12.86,9,37.41,29.48-26.74,4.54,10.6" style="fill: none; stroke: #ff8710; stroke-miterlimit: 10; stroke-width: 3px;"/>
  <polyline points="1130.05 186.55 1178.81 247.59 1244.75 273.73 1282.64 261.62 1324.49 288.74" style="fill: none; stroke: #ff8710; stroke-miterlimit: 10; stroke-width: 3px;"/>
  <polyline points="1255.74 210.64 1282.64 261.62 1286.61 301.6 1333.5 326.16" style="fill: none; stroke: #ff8710; stroke-miterlimit: 10; stroke-width: 3px;"/>
  <path d="M1524.36,227.24l-1.07.23-26.69,3.27-12.16,12.63s-23.38,41.62-27.13,48.17-45.83,13.56-45.83,13.56l-43.96,4.91-7.37,8.77-26.66,7.37-25.25,24.2s-5.61,22.8-6.31,23.85,5.61,27.71,5.61,27.71h-34.02l-55.77-20.34-39.29-30.52-18.24-28.06-18.24-27.01-26.31-58.23-9.47-37.88,23.85-13.33,83.13,9.12,42.56,14.97,24.32,27.13s37.41,43.96,44.43,50.98,38.49,10.68,38.49,10.68l8.4-15.7,4.56-18.24-4.54-9.55,4.68-12.86,4.21-30.87-2.95-13.19v-45l-18-45,9-27,18-18h27s27,18,27,18v54l9,45,36,18h18l20.85-8.41,4.15,807.98" style="fill: none; stroke: #ff8710; stroke-miterlimit: 10; stroke-width: 3px;"/>
  <path d="M1383.89,438.87c-3.74-1.87-19.64-7.02-19.64-7.02l-20.11-21.05-30.87-3.27-6.55,5.61-20.11,25.72,20.11-10.29,8.47-5.38v13.8l8.36,15.9,5.14,6.08-1.87,7.48,8.42,14.5s12.16,1.87,13.56,0,13.56-16.37,14.97-16.84,20.11-9.82,20.11-9.82v-15.43Z" style="fill: none; stroke: #ff8710; stroke-miterlimit: 10; stroke-width: 3px;"/>
  <line x1="1420.84" y1="733.04" x2="1491.25" y2="723.43" style="fill: none; stroke: #ff8710; stroke-miterlimit: 10; stroke-width: 3px;"/>
  <polyline points="1483.04 669.44 1499.17 775.49 1483.04 669.44" style="fill: none; stroke: #ff8710; stroke-miterlimit: 10; stroke-width: 3px;"/>
  <polyline points="1483.04 669.44 1459.42 728.24 1499.17 775.49" style="fill: none; stroke: #ff8710; stroke-miterlimit: 10; stroke-width: 3px;"/>
  <path d="M1407.74,711.99l75.3-42.56-62.67,60.45-.76.61" style="fill: none; stroke: #ff8710; stroke-miterlimit: 10; stroke-width: 3px;"/>
  <polyline points="1461.99 636.7 1484.44 639.23 1490.99 635.76" style="fill: none; stroke: #ff8710; stroke-miterlimit: 10; stroke-width: 3px;"/>
  <line x1="1459.65" y1="604.43" x2="1450.3" y2="617.52" style="fill: none; stroke: #ff8710; stroke-miterlimit: 10; stroke-width: 3px;"/>
  <polyline points="1450.3 617.52 1469.99 616.12 1461.99 636.7 1480.23 623.13 1488.18 653.53" style="fill: none; stroke: #ff8710; stroke-miterlimit: 10; stroke-width: 3px;"/>
  <polyline points="1435.8 644.65 1461.99 636.7 1483.04 669.44" style="fill: none; stroke: #ff8710; stroke-miterlimit: 10; stroke-width: 3px;"/>
  <line x1="1435.8" y1="644.65" x2="1450.3" y2="617.52" style="fill: none; stroke: #ff8710; stroke-miterlimit: 10; stroke-width: 3px;"/>
  <polyline points="1483.04 669.44 1400.96 683.23 1435.8 644.65 1411.07 651.31" style="fill: none; stroke: #ff8710; stroke-miterlimit: 10; stroke-width: 3px;"/>
  <polyline points="1435.8 582.51 1429.72 614.72 1411.07 651.31" style="fill: none; stroke: #ff8710; stroke-miterlimit: 10; stroke-width: 3px;"/>
  <path d="M1439.04,597.64c.21,0,11.26,2.11,11.26,2.11l-5.61-12.46" style="fill: none; stroke: #ff8710; stroke-miterlimit: 10; stroke-width: 3px;"/>
  <path d="M1450.3,599.75s-21.45,16.56-20.58,14.97" style="fill: none; stroke: #ff8710; stroke-miterlimit: 10; stroke-width: 3px;"/>
  <line x1="1488.18" y1="653.53" x2="1510.16" y2="635.76" style="fill: none; stroke: #ff8710; stroke-miterlimit: 10; stroke-width: 3px;"/>
  <path d="M1491.92,587.29l-21.93,28.83,33.63-11.69s-26.07,18.77-23.38,18.71,29.93,12.63,29.93,12.63h-19.18" style="fill: none; stroke: #ff8710; stroke-miterlimit: 10; stroke-width: 3px;"/>
  <line x1="1462.93" y1="582.51" x2="1459.65" y2="604.43" style="fill: none; stroke: #ff8710; stroke-miterlimit: 10; stroke-width: 3px;"/>
  <polyline points="1491.92 587.29 1459.65 604.43 1444.69 587.29" style="fill: none; stroke: #ff8710; stroke-miterlimit: 10; stroke-width: 3px;"/>
  <polyline points="1500.34 548.31 1491.92 587.29 1525.98 548.31 1503.62 604.43 1525.98 619.22 1510.16 635.76" style="fill: none; stroke: #ff8710; stroke-miterlimit: 10; stroke-width: 3px;"/>
  <polyline points="1435.8 582.51 1444.69 587.29 1465.73 572.16 1462.93 582.51" style="fill: none; stroke: #ff8710; stroke-miterlimit: 10; stroke-width: 3px;"/>
  <polyline points="1435.8 582.51 1465.73 572.16 1500.34 548.31 1524.19 548.31 1525.98 548.31" style="fill: none; stroke: #ff8710; stroke-miterlimit: 10; stroke-width: 3px;"/>
  <path d="M1402.6,683.23l5.14,28.76,13.1,21.05,44.9,26.66s33.21,16.84,36.95,16.84h24.27" style="fill: none; stroke: #ff8710; stroke-miterlimit: 10; stroke-width: 3px;"/>
  <path d="M1503.62,604.43c-1.4-3.27-11.69-17.14-11.69-17.14l-29-4.78-18.24,4.78-14.97,27.43,6.08,29.93,20.11,10.29,27.13,14.5,14.03-13.56s14.5-17.77,13.1-20.11-6.55-31.33-6.55-31.33Z" style="fill: none; stroke: #ff8710; stroke-miterlimit: 10; stroke-width: 3px;"/>
  <polygon points="1450.3 599.75 1450.3 617.52 1461.99 636.7 1480.23 648.86 1488.18 653.53 1490.99 635.76 1480.23 623.13 1469.99 616.12 1459.65 604.43 1450.3 599.75" style="fill: none; stroke: #ff8710; stroke-miterlimit: 10; stroke-width: 3px;"/>
  <polyline points="1413.34 64 1359.34 109 1440.34 136 1377.34 154 1449.34 181 1377.34 199" style="fill: none; stroke: #ff8710; stroke-miterlimit: 10; stroke-width: 3px;"/>
  <line x1="1359.34" y1="109" x2="1440.34" y2="82" style="fill: none; stroke: #ff8710; stroke-miterlimit: 10; stroke-width: 3px;"/>
  <line x1="1371.38" y1="283.71" x2="1457.32" y2="291.55" style="fill: none; stroke: #ff8710; stroke-miterlimit: 10; stroke-width: 3px;"/>
  <path d="M1371.4,255.92c3.14-.27,85.92,35.63,85.92,35.63l-81.38-26.07" style="fill: none; stroke: #ff8710; stroke-miterlimit: 10; stroke-width: 3px;"/>
  <path d="M1380.28,212.19l104.16,31.18-108.37-.32,81.24,48.49-.94,24.32,17.3,26.19,9.35,33.21-9.35,53.78-22.45,30.4v25.72l-15.43,56.59-4.68,17.77,4.68,22.98-15.43,38.29s-13.1,40.22-14.5,43.96-3.27,18.47-3.27,18.47l-18.71-8.77-13.21-17.89-5.26-15.08-11.93-23.15v-21.4s-4.56-22.8-3.86-21.75,3.86-20.34,3.86-20.34l-2.81-14.38v-15.08l-3.16-22.1-9.82-7.02,1.75-14.49" style="fill: none; stroke: #ff8710; stroke-miterlimit: 10; stroke-width: 3px;"/>
  <path d="M1524.36,227.24s-19.61-28.32-21.02-28.24l-6.74,31.75-11.26-31.75-.9,44.38-35.1-62.38" style="fill: none; stroke: #ff8710; stroke-miterlimit: 10; stroke-width: 3px;"/>
</svg>